HIERARCHY
ROOT pelvis
{
  OFFSET 0 100 0
  CHANNELS 6 Xposition Yposition Zposition Zrotation Xrotation Yrotation
  JOINT pelvis_right_femur
  {
    OFFSET -10.78128 -3.44521 -0.5502486
    CHANNELS 3 Zrotation Xrotation Yrotation
    JOINT right_femur_tibia
    {
      OFFSET -0.8047443 -44.0398 -0.1307829
      CHANNELS 3 Zrotation Xrotation Yrotation
      JOINT right_tibia_foot
      {
        OFFSET 3.006224 -47.83518 -5
        CHANNELS 3 Zrotation Xrotation Yrotation
        End Site
        {
          OFFSET 0 -5 15
        }
      }
    }
  }
  JOINT pelvis_left_femur
  {
    OFFSET 10.78128 -3.44521 -0.5502486
    CHANNELS 3 Zrotation Xrotation Yrotation
    JOINT left_femur_tibia
    {
      OFFSET 0.8047443 -44.0398 -0.1307829
      CHANNELS 3 Zrotation Xrotation Yrotation
      JOINT left_tibia_foot
      {
        OFFSET -4.370144 -48.10324 -4.275266
        CHANNELS 3 Zrotation Xrotation Yrotation
        End Site
        {
          OFFSET 0 -5 15
        }
      }
    }
  }
  JOINT pelvis_spine1
  {
    OFFSET 0 6.468898 -3.129235
    CHANNELS 3 Zrotation Xrotation Yrotation
    JOINT spine1
    {
      OFFSET 0 23.15396 4.99043
      CHANNELS 3 Zrotation Xrotation Yrotation
      JOINT spine2
      {
        OFFSET 0 20.79997 -5.064912
        CHANNELS 3 Zrotation Xrotation Yrotation
        JOINT neck
        {
          OFFSET 0 14.38658 9.616178
          CHANNELS 3 Zrotation Xrotation Yrotation
          End Site
          {
            OFFSET 0 20 0
          }
        }
      }
      JOINT right_manubrium
      {
        OFFSET -5.722621 16.35077 3.967754
        CHANNELS 3 Zrotation Xrotation Yrotation
        JOINT right_clavicle
        {
          OFFSET -13.16364 1.694482 -4.693211
          CHANNELS 3 Zrotation Xrotation Yrotation
          JOINT right_humerus
          {
            OFFSET -28.5034 -0.3100689 -2.792744
            CHANNELS 3 Zrotation Xrotation Yrotation
            JOINT right_radius
            {
              OFFSET -25.15693 0.02248979 -1.271978
              CHANNELS 3 Zrotation Xrotation Yrotation
              End Site
              {
                OFFSET -15 0 0
              }
            }
          }
        }
      }
      JOINT left_manubrium
      {
        OFFSET 5.722621 16.35077 3.967754
        CHANNELS 3 Zrotation Xrotation Yrotation
        JOINT left_clavicle
        {
          OFFSET 13.16364 1.694482 -4.693211
          CHANNELS 3 Zrotation Xrotation Yrotation
          JOINT left_humerus
          {
            OFFSET 29.39168 -1.063119 -2.237045
            CHANNELS 3 Zrotation Xrotation Yrotation
            JOINT left_radius
            {
              OFFSET 24.59957 -0.9528479 0.9047498
              CHANNELS 3 Zrotation Xrotation Yrotation
              End Site
              {
                OFFSET 15 -0 -0
              }
            }
          }
        }
      }
    }
  }
}
MOTION
Frames: 11
Frame Time: 0.0416666666667
0 103.5113 0 0.1699912 -0.5293736 0.1395971 4.287603 -21.28087 8.727333 -0 38.40616 -0 -6.764102 -13.65335 -2.992663 -6.467473 10.86012 -21.64127 -0 5.698466 -0 10.18371 -16.42863 25.65297 -3.192528 -2.687981 4.02211 2.498886 9.698783 -7.645261 1.383443 22.05819 6.877696 2.827105 -25.06376 9.776903 5.61865 -19.74582 11.56354 86.54792 35.09087 -18.83955 -0 0 14.88588 -7.675852 8.139165 4.976864 5.538669 -19.99319 -1.96299 -91.84543 25.13806 20.2625 0 0 -17.18963 11.01871 16.14782 2.053602
0.2854675 103.7685 2.097719 -0.03877109 -0.4905125 0.280078 4.451033 -22.30509 8.236604 -0 37.3085 -0 -6.897507 -12.62458 -2.885489 -6.228139 11.03204 -21.06503 -0 5.837116 -0 9.481643 -17.08934 24.9755 -3.087788 -2.460369 3.819046 2.587937 9.689056 -7.728174 1.351483 21.98264 6.92943 2.884195 -25.10318 9.711833 5.496396 -19.58078 11.60592 86.59613 34.57702 -18.94344 -0 0 14.6026 -8.235439 8.24608 5.188819 5.691384 -20.24711 -2.009064 -91.66821 24.88959 19.93515 0 0 -17.29466 10.90941 16.25743 2.021713
0.544026 103.7316 4.69731 -0.6283137 1.68129 0.4683241 6.040106 -28.89269 7.471705 -0 27.11721 -0 -6.235004 -11.03204 -2.285631 -6.003448 12.33373 -20.17022 -0 6.37229 -0 8.144079 -20.57909 23.85353 -3.233902 -1.809367 3.704488 3.473977 8.962661 -8.094932 1.533119 21.12233 7.065542 3.14072 -26.16672 10.02442 5.603042 -18.68682 11.43076 86.03097 35.05608 -19.70993 -0 0 14.04025 -7.687288 8.46304 4.710293 6.867587 -20.71945 -1.022274 -91.39754 24.36937 18.68271 0 0 -18.8651 11.16719 15.72818 1.155108
0.7832669 103.5142 7.704696 -1.038027 2.652948 0.7354709 6.868041 -31.83831 6.984226 -0 22.74259 -0 -6.297378 -9.21548 -1.914789 -5.754321 13.15897 -19.22401 -0 7.261985 -0 6.960145 -21.95739 22.61623 -3.059179 -1.523758 3.51173 3.799557 8.761823 -8.321543 1.517203 20.65012 7.250842 3.331298 -26.74105 10.12479 5.441034 -18.24664 11.36345 86.25015 34.96053 -20.38907 -0 0 13.39287 -7.815832 8.645191 4.665328 7.371779 -21.16892 -0.7084812 -91.0338 23.83707 17.93099 0 0 -19.91692 11.43863 15.2094 0.5724345
0.9836743 103.2232 11.34565 -1.597651 3.347808 1.119974 7.64893 -34.24174 6.123527 -0 18.87602 -0 -6.941211 -6.708319 -1.489597 -5.297244 14.19878 -17.64854 -0 9.318191 -0 4.940352 -22.7744 20.43096 -2.548111 -1.244859 3.100932 3.982233 8.630074 -8.566903 1.395543 20.27946 7.502385 3.517287 -27.1781 10.11645 4.935128 -17.6779 11.28131 87.05945 34.25769 -21.36951 -0 0 12.14661 -8.422023 8.832632 4.773231 7.764098 -21.85862 -0.6195222 -90.30787 23.10308 16.76054 0 0 -21.27346 11.8326 14.60606 -0.1968674
1.141433 102.9441 15.56715 -2.073314 3.525933 1.57125 8.115251 -35.04301 5.260654 -0 16.73448 -0 -7.864518 -4.911833 -1.191726 -4.853147 14.98168 -16.20631 -0 12.13866 -0 2.877411 -22.60293 18.263 -1.919298 -1.093592 2.676072 3.974462 8.53658 -8.707115 1.248436 20.18629 7.68154 3.597476 -27.28784 10.0197 4.30858 -17.16163 11.18313 88.0508 33.33106 -22.21929 -0 0 10.84407 -9.056283 8.9003 4.873999 7.874113 -22.41323 -0.7280376 -89.60679 22.64014 15.69624 0 0 -22.3329 12.05081 14.19839 -0.6917552
1.244063 102.7743 20.38168 -2.498218 3.123593 2.034378 8.290005 -34.34523 4.125258 -0 15.6156 -0 -9.179624 -3.705522 -0.9894422 -4.352793 15.44994 -14.6769 -0 16.39215 -0 0.527303 -21.48165 15.91951 -1.128475 -0.9845792 2.197431 3.796716 8.436176 -8.729251 1.088972 20.42734 7.759469 3.555715 -27.02383 9.804615 3.441009 -16.59033 11.05584 89.27555 31.92998 -22.95047 -0 0 9.292383 -9.869216 8.830816 4.975707 7.732009 -22.89206 -1.0516 -88.84434 22.41709 14.52833 0 0 -23.1114 12.08878 14.06078 -0.9758004
1.29311 102.8143 25.69786 -2.777535 2.259089 2.438489 8.245335 -32.2416 2.955156 -0 15.2459 -0 -10.59912 -3.312526 -0.9184642 -3.902691 15.3101 -13.32588 -0 21.80212 -0 -1.620116 -19.59458 13.93232 -0.3406669 -0.9177985 1.821868 3.509917 8.356538 -8.616708 0.9708548 20.9347 7.703762 3.409181 -26.48269 9.524459 2.490367 -16.07918 10.92606 90.47251 30.36518 -23.412 -0 0 7.81869 -10.67924 8.65124 5.04585 7.374763 -23.18074 -1.499115 -88.22741 22.46757 13.55986 0 0 -23.41806 11.90422 14.16414 -0.9585388
1.287529 103.1434 31.39551 -2.86958 0.935173 2.709497 8.031562 -28.74941 1.773161 -0 15.23468 -0 -12.04508 -3.620421 -0.9906762 -3.50679 14.29342 -12.11895 -0 28.46289 -0 -3.429995 -17.08936 12.46186 0.373697 -0.8503547 1.622975 3.139363 8.348972 -8.358866 0.9239155 21.6842 7.487533 3.173448 -25.69609 9.181732 1.46614 -15.68292 10.81807 91.57268 28.64671 -23.54116 -0 0 6.521093 -11.56073 8.404843 5.126853 6.83908 -23.28338 -2.057806 -87.82404 22.71606 12.8919 0 0 -23.14829 11.51209 14.49183 -0.6652371
1.230071 103.8083 37.30716 -2.744727 -0.675674 2.801587 7.74395 -24.18256 0.7505232 -0 15.19288 -0 -13.3052 -4.413089 -1.188369 -3.192046 12.19035 -11.09334 -0 35.82417 -0 -4.651983 -14.31007 11.72283 0.8976175 -0.7654385 1.70226 2.737073 8.495716 -7.981555 0.9687882 22.5361 7.120824 2.897805 -24.79731 8.807418 0.4799109 -15.52278 10.77068 92.43413 26.99375 -23.30015 -0 0 5.643493 -12.50992 8.193772 5.276635 6.211489 -23.215 -2.660692 -87.74448 23.00817 12.744 0 0 -22.28719 10.97986 14.91698 -0.1575436
1.122766 104.7903 43.25082 -2.407668 -2.431091 2.698307 7.430783 -18.82999 -0.02887615 -0 14.80635 -0 -14.23579 -5.428551 -1.46971 -2.934238 8.877381 -10.19601 -0 43.18112 -0 -5.198107 -11.56748 11.75672 1.160622 -0.6500417 2.105062 2.330646 8.865813 -7.5141 1.104498 23.36255 6.622844 2.620499 -23.87508 8.408529 -0.4019509 -15.69608 10.81246 92.97069 25.53125 -22.66889 -0 0 5.362698 -13.58096 8.122359 5.570738 5.577085 -23.02848 -3.264499 -88.0304 23.16852 13.24074 0 0 -20.89781 10.39032 15.32582 0.4664488
